<svg xmlns="http://www.w3.org/2000/svg" width="88" height="44" viewBox="0 0 88 44"><g fill="#08C"><path d="M20.5 22.25c.552 0 1 .448 1 1 0 .343-.185.63-.447.812.292.12.61.188.947.188 1.38 0 2.5-1.12 2.5-2.5s-1.12-2.5-2.5-2.5-2.5 1.12-2.5 2.5c0 .336.068.655.188.948.18-.264.47-.448.812-.448z"/><path d="M22 14.75c-8.667 0-13 8-13 8s1.946 2.578 6 4.5c1.885.894 4.024 2 7 2 3.01 0 5.105-1.09 7-2 4.008-1.924 6-4.5 6-4.5s-4.333-8-13-8zm0 3.5c1.93 0 3.5 1.57 3.5 3.5s-1.57 3.5-3.5 3.5-3.5-1.57-3.5-3.5 1.57-3.5 3.5-3.5zm6.135 7.197l-.3.143c-1.69.816-3.438 1.66-5.835 1.66-2.354 0-4.114-.84-5.816-1.65l-.326-.157c-2.034-.964-3.474-2.116-4.327-2.917.61-.7 2.697-2.872 6.047-4.03-.673.91-1.074 2.034-1.074 3.254 0 3.037 2.464 5.5 5.5 5.5s5.5-2.463 5.5-5.5c0-1.218-.4-2.34-1.07-3.25 3.368 1.173 5.43 3.377 6 4.05-.87.803-2.302 1.94-4.294 2.897z"/></g><path fill="#08C" d="M77.896 21.985c-.386.37-.82.776-1.334 1.24-.44.417-1.666 1.466-3.58 2.38l-.118.054c-.26.12-.535.235-.82.35l-.02.01c-.73.29-1.54.546-2.426.744l-.154.035c-.17.037-.343.072-.518.104-1.734.318-2.926.26-2.926.26s-1.192.058-2.927-.26c-.175-.033-.348-.068-.518-.104-.05-.01-.103-.02-.154-.033-.883-.198-1.692-.455-2.423-.745-.005 0-.012-.005-.02-.007-.284-.114-.56-.232-.82-.354-.038-.02-.077-.035-.117-.054-1.915-.913-3.14-1.962-3.58-2.38-.514-.462-.95-.868-1.335-1.24-.813.623 3.154 7.934 11.897 7.934s12.71-7.31 11.897-7.933z"/></svg>